<?xml version="1.0" standalone="no"?>
<!DOCTYPE svg PUBLIC "-//W3C//DTD SVG 20010904//EN"
 "http://www.w3.org/TR/2001/REC-SVG-20010904/DTD/svg10.dtd">
<svg version="1.0" xmlns="http://www.w3.org/2000/svg"
 width="666.000000pt" height="666.000000pt" viewBox="0 0 666.000000 666.000000"
 preserveAspectRatio="xMidYMid meet">
<metadata>
Created by potrace 1.14, written by Peter Selinger 2001-2017
</metadata>
<g transform="translate(0.000000,666.000000) scale(0.100000,-0.100000)"
fill="#000000" stroke="none">
<path d="M3125 6499 c-938 -61 -1809 -543 -2367 -1309 -804 -1106 -804 -2624
0 -3730 877 -1205 2462 -1643 3831 -1059 520 223 985 595 1323 1059 804 1106
804 2624 0 3730 -504 692 -1270 1158 -2105 1280 -243 36 -447 45 -682 29z
m585 -324 c443 -64 846 -214 1195 -443 430 -282 769 -663 999 -1122 210 -421
300 -807 300 -1285 0 -478 -90 -864 -300 -1285 -281 -562 -722 -1003 -1284
-1284 -543 -271 -1135 -363 -1736 -270 -57 9 -104 19 -104 23 1 3 31 27 67 54
62 44 70 47 130 47 73 0 88 -8 182 -92 l64 -58 59 64 c90 99 138 106 268 40
92 -47 106 -45 115 12 4 29 17 57 35 77 27 31 32 32 113 35 58 3 102 -1 139
-12 l53 -16 23 26 c12 14 22 38 22 55 0 69 58 130 156 164 39 13 70 31 72 39
2 8 -11 41 -27 73 -35 66 -37 82 -16 122 20 40 67 77 149 118 39 19 73 37 75
39 3 2 -21 29 -52 59 -69 68 -79 103 -47 169 12 26 47 67 81 97 l60 52 -45 28
c-51 32 -69 61 -91 145 -14 55 -14 59 11 118 46 109 47 106 -29 106 -60 0 -70
3 -102 31 l-35 31 0 109 0 109 -50 0 c-60 0 -88 16 -126 73 -29 45 -28 63 9
148 l16 37 -59 21 c-83 30 -96 50 -130 187 -10 39 -12 41 -66 53 -68 16 -120
58 -134 110 -6 25 -7 63 0 112 5 41 10 81 10 90 0 9 -21 24 -56 38 -77 33
-110 63 -133 127 -35 93 -28 128 41 200 l39 41 -21 47 c-16 39 -18 55 -10 91
17 74 39 108 101 152 61 45 66 56 48 108 -10 27 -9 36 14 72 14 22 39 50 54
61 35 25 204 82 242 82 40 0 52 19 49 82 -3 65 13 94 74 138 38 28 47 30 129
30 89 0 89 0 94 28 34 162 51 189 138 217 50 16 87 40 87 56 0 4 -16 30 -35
59 -28 42 -35 62 -35 101 0 68 20 110 85 178 30 32 55 61 55 66 0 4 -25 35
-56 68 -89 96 -99 138 -53 230 l19 37 -45 0 c-115 0 -169 61 -190 213 l-6 47
-113 0 c-98 0 -117 3 -138 20 -35 27 -58 80 -58 133 0 85 -7 87 -120 33 -42
-20 -71 -26 -122 -26 l-68 0 -61 75 c-34 41 -63 75 -64 75 -2 0 -28 -15 -58
-34 -90 -53 -135 -62 -213 -41 -54 14 -77 28 -125 73 -66 61 -56 62 -140 -14
-54 -49 -89 -68 -183 -100 -85 -29 -130 -30 -187 -4 -46 20 -105 26 -128 11
-10 -7 -4 -29 32 -112 61 -140 77 -192 84 -264 l5 -60 -36 -17 c-48 -24 -222
-58 -288 -58 -29 0 -98 7 -153 15 -55 8 -106 15 -112 15 -10 0 -13 -24 -13
-86 0 -147 68 -276 172 -328 45 -22 65 -26 145 -26 62 0 120 7 173 21 l80 20
82 -37 c108 -49 185 -56 290 -24 134 40 222 107 289 221 22 37 47 70 55 73 8
3 40 -10 71 -28 32 -18 68 -36 79 -40 12 -4 29 -15 39 -26 16 -18 16 -21 -4
-53 -42 -69 -137 -116 -236 -117 -33 0 -65 -4 -71 -8 -7 -4 -25 -36 -41 -72
-17 -38 -45 -79 -67 -97 -37 -33 -37 -33 -145 -33 l-109 0 -17 -71 c-23 -91
-63 -145 -138 -183 -61 -31 -62 -31 -177 0 -12 3 -20 -13 -33 -64 -10 -37 -30
-89 -45 -117 -31 -58 -80 -88 -175 -107 -58 -12 -59 -13 -54 -43 2 -16 12 -59
22 -95 22 -79 17 -107 -33 -162 -41 -46 -93 -71 -181 -89 l-59 -13 13 -35 c7
-20 23 -58 35 -85 19 -42 22 -60 16 -116 -9 -97 -24 -132 -90 -201 -67 -71
-72 -54 39 -134 106 -76 135 -168 82 -258 -15 -25 -27 -48 -27 -50 0 -3 21
-10 46 -16 97 -25 162 -69 195 -133 24 -47 24 -65 -1 -128 -11 -28 -18 -55
-15 -59 2 -5 45 -12 95 -15 82 -7 95 -11 125 -37 64 -56 76 -87 69 -170 -6
-60 -5 -71 7 -67 8 3 39 11 70 18 74 16 143 -4 189 -57 31 -35 32 -39 28 -112
l-3 -76 131 0 c118 0 134 -2 154 -20 31 -28 50 -76 50 -128 l0 -44 58 -7 c81
-9 114 -33 151 -107 35 -69 39 -120 16 -176 -19 -45 -19 -63 0 -63 27 0 92
-38 119 -70 20 -24 26 -42 26 -78 0 -55 -18 -86 -78 -138 l-42 -36 0 -85 0
-85 -39 -39 -39 -39 -96 0 c-89 0 -101 -2 -154 -31 -50 -27 -63 -30 -110 -25
-64 8 -96 23 -139 68 -107 111 -69 339 61 363 81 16 107 -22 99 -142 -7 -102
3 -109 65 -51 26 24 77 68 114 96 82 65 108 104 108 165 l0 46 -85 62 c-47 34
-91 71 -98 83 -7 12 -14 59 -17 106 l-5 85 -30 -3 c-16 -1 -55 -16 -86 -32
-73 -38 -118 -38 -189 -1 -30 16 -68 31 -85 32 l-30 4 -5 -101 c-4 -72 -10
-107 -23 -127 -17 -27 -18 -27 -135 -27 -64 0 -123 -4 -131 -9 -16 -10 -8 -37
40 -129 60 -115 50 -145 -81 -237 -44 -31 -80 -62 -80 -70 0 -7 -3 -20 -6 -29
-4 -12 5 -18 39 -27 60 -15 119 -66 151 -131 31 -63 32 -87 6 -164 -34 -97
-23 -111 88 -113 75 -1 116 -22 154 -77 18 -26 46 -63 63 -82 l29 -34 -44 7
c-172 29 -459 131 -680 241 -562 281 -1003 722 -1284 1284 -210 421 -300 807
-300 1285 0 478 90 864 300 1285 281 562 722 1003 1284 1284 347 173 649 257
1085 300 86 9 475 -4 575 -19z m-444 -350 c73 -55 97 -135 70 -228 -25 -86
-99 -135 -191 -125 -121 14 -198 108 -187 226 4 43 92 138 145 156 50 17 119
5 163 -29z m867 -456 l38 -73 -3 -191 -3 -190 -52 -105 c-69 -141 -133 -205
-259 -259 l-89 -39 -32 -77 c-17 -42 -39 -88 -48 -102 -21 -31 -72 -53 -124
-53 l-39 0 -21 -69 c-23 -77 -67 -124 -159 -173 l-52 -28 0 -99 0 -98 -55 -62
c-30 -34 -55 -65 -55 -69 0 -5 20 -27 45 -51 63 -60 67 -92 21 -175 -50 -90
-49 -123 9 -185 53 -56 58 -96 24 -163 l-22 -42 24 -15 c13 -9 39 -30 57 -47
39 -38 42 -85 12 -153 -11 -24 -20 -49 -20 -55 0 -7 32 -27 70 -45 88 -41 100
-58 100 -137 l0 -61 68 -74 c37 -41 88 -104 114 -140 25 -36 65 -78 89 -94 23
-17 48 -45 56 -64 8 -18 37 -61 65 -94 48 -58 50 -63 45 -110 -4 -47 -3 -50
44 -98 39 -40 49 -58 54 -97 4 -26 15 -76 26 -111 26 -87 24 -102 -17 -157
-50 -65 -57 -96 -39 -167 22 -86 19 -123 -14 -181 -16 -28 -35 -73 -42 -101
-17 -70 -32 -96 -77 -137 -49 -44 -82 -63 -82 -48 0 16 19 50 51 90 20 25 31
56 40 105 7 44 24 93 47 134 34 62 36 70 44 205 5 78 9 148 10 156 1 8 -4 57
-10 108 -9 76 -17 102 -46 150 -19 31 -40 81 -46 111 -10 42 -23 64 -61 103
-32 33 -53 65 -64 101 -15 46 -36 71 -171 204 -131 130 -157 161 -174 207 -12
30 -31 68 -43 85 -90 123 -88 118 -93 188 -8 100 -10 108 -54 158 -45 52 -46
59 -25 129 25 83 20 117 -25 172 -46 55 -48 71 -19 134 12 25 23 72 26 106 5
51 1 69 -21 116 -14 30 -26 65 -26 77 0 13 17 50 37 83 34 55 38 69 43 150 6
101 0 93 110 158 73 43 90 60 148 146 23 34 68 84 100 110 33 27 81 79 108
116 43 58 58 70 119 97 139 62 259 180 284 279 5 20 17 69 26 107 10 39 20 82
22 96 5 27 -36 227 -62 299 -43 121 7 128 68 9z m-269 -26 c21 -73 27 -160 17
-267 -5 -64 -15 -126 -22 -138 -44 -85 -108 -127 -195 -128 -44 0 -54 -4 -85
-36 -18 -20 -51 -47 -72 -61 -21 -13 -45 -39 -52 -56 -18 -43 -36 -58 -122
-101 -39 -19 -74 -43 -76 -53 -3 -10 -8 -32 -12 -49 -9 -44 -38 -68 -130 -106
-77 -33 -80 -35 -98 -83 -44 -116 -42 -113 -124 -153 l-78 -37 3 -60 c4 -88
-4 -118 -48 -172 -51 -61 -51 -83 0 -117 49 -32 80 -80 80 -123 0 -17 -13 -59
-30 -94 -32 -69 -32 -71 25 -139 68 -82 83 -137 52 -196 -30 -58 -31 -96 -3
-134 14 -19 33 -46 43 -59 14 -19 18 -47 19 -125 l2 -101 55 -50 c49 -45 56
-56 67 -110 7 -33 14 -71 17 -84 6 -23 4 -24 -32 -18 -21 3 -39 8 -42 11 -2 2
-11 32 -19 66 -14 63 -35 100 -84 155 -24 27 -28 40 -33 117 -4 78 -9 95 -46
162 -43 79 -49 115 -26 156 8 14 14 52 15 84 0 59 -1 60 -50 106 -53 49 -64
86 -39 133 16 30 14 115 -3 157 -8 19 -31 56 -52 83 -20 26 -36 56 -36 67 0
11 13 41 30 68 54 89 71 138 72 211 l0 68 54 22 c51 22 83 51 162 150 23 28
55 51 97 70 63 29 92 59 137 140 9 17 38 43 64 58 25 16 102 83 170 149 l124
122 68 7 c84 8 104 21 135 87 39 83 49 153 41 282 -3 63 -3 119 0 125 11 18
54 13 60 -6z m-623 -2876 c27 -18 37 -34 48 -79 l15 -56 49 -8 c50 -9 50 -9
77 -74 20 -48 38 -73 68 -95 28 -21 48 -49 67 -90 15 -35 48 -83 80 -115 49
-51 53 -59 57 -112 4 -47 12 -69 43 -113 l38 -56 -6 -117 c-6 -104 -4 -124 15
-177 26 -74 21 -102 -32 -159 -43 -47 -60 -82 -60 -127 0 -67 -70 -153 -156
-189 -42 -18 -139 -40 -177 -40 -34 0 -12 23 39 40 119 38 193 104 228 201 13
36 45 96 71 134 52 76 54 96 20 185 -16 44 -16 112 1 198 4 21 -3 40 -32 82
-20 30 -43 74 -51 98 -7 25 -31 64 -53 88 -22 24 -40 49 -40 56 0 36 -44 98
-95 132 -36 24 -62 50 -76 78 -12 24 -47 70 -79 103 -31 33 -67 81 -80 105
-12 25 -41 64 -63 88 l-41 42 45 0 c31 0 57 -7 80 -23z"/>
<path d="M4335 3944 c-39 -25 -112 -58 -165 -76 -80 -26 -118 -32 -243 -39
-82 -4 -184 -15 -228 -25 l-79 -17 0 -42 0 -42 108 -9 c59 -5 170 -9 246 -9
145 0 164 -6 127 -39 -13 -12 -42 -19 -83 -22 -35 -3 -97 -14 -138 -25 -41
-10 -95 -24 -119 -30 -59 -14 -42 -28 50 -38 41 -5 101 -16 134 -24 33 -9 82
-18 110 -22 32 -5 44 -10 35 -15 -36 -19 -229 -60 -285 -60 -58 0 -146 -22
-172 -43 -23 -17 -14 -38 25 -54 26 -11 97 -20 240 -28 118 -6 207 -16 213
-22 8 -8 4 -16 -16 -29 -21 -14 -59 -20 -159 -26 -177 -10 -173 -9 -182 -63
-3 -25 -3 -65 0 -90 l7 -44 113 6 c98 5 126 3 207 -17 96 -23 171 -55 224 -95
41 -30 96 -58 102 -51 8 8 -26 160 -49 224 -23 61 -22 61 53 119 38 29 49 43
49 65 0 15 -3 28 -8 28 -4 0 -31 21 -60 46 -68 60 -68 78 3 135 42 33 55 50
55 70 0 15 -6 29 -12 32 -7 2 -41 25 -75 50 l-62 46 40 68 c21 37 48 92 59
121 20 52 27 133 13 131 -5 0 -39 -20 -78 -45z"/>
<path d="M3109 5721 c-31 -31 -36 -55 -18 -94 11 -25 47 -47 74 -47 45 0 85
43 85 91 0 30 -53 79 -85 79 -16 0 -38 -12 -56 -29z"/>
</g>
</svg>
