<svg width="822.39" height="822.39" viewBox="0 0 616.793 616.793" xmlns="http://www.w3.org/2000/svg">
  <path style="fill:#ff8403;fill-opacity:1;fill-rule:evenodd;stroke-width:.700631" d="M616.793 308.396a308.396 308.396 0 0 1-308.397 308.397A308.396 308.396 0 0 1 0 308.396a308.396 308.396 0 0 1 616.793 0"/>
  <path style="fill:#fff;fill-rule:evenodd;stroke-width:.793287;fill-opacity:1" d="M588.42 308.396A280.024 280.024 0 0 1 308.396 588.42 280.024 280.024 0 0 1 28.372 308.396a280.024 280.024 0 0 1 560.048 0"/>
  <path fill="#ed7d07" stroke="#ed7d07" stroke-width=".116" d="M276.446 60.445c3.7-3.207 7.031-6.908 10.979-9.868 3.947 2.837 6.784 7.031 10.855 9.745 4.811 2.097 10.115 4.071 15.42 3.084 5.675-1.603 10.732-4.811 15.79-7.895 4.194 3.7 6.538 8.882 10.855 12.583 2.221 2.221 5.551 1.603 8.389 1.727 7.649.37 13.199-6.168 20.601-6.784.247 5.428-.37 11.472 2.96 16.16 2.221 2.591 5.058 5.428 8.759 5.305 5.921.247 11.842 0 17.764.123.247 7.402.987 16.283 7.771 20.724 3.824 3.331 9.128 2.468 13.939 2.96-1.974 4.441-5.181 8.882-3.947 13.939 1.603 6.044 6.908 9.745 10.979 14.063 1.48 1.234 1.85 3.947.123 5.181-4.565 4.194-9.252 8.759-11.225 14.803-.247 4.565-1.11 9.868 1.85 13.817 1.603 2.221 3.207 4.318 4.811 6.415-3.824 5.921-12.706 4.194-17.023 9.745-3.084 5.551-3.577 11.966-4.688 18.011-5.305.247-10.732-.37-16.16.37-3.824 1.603-7.031 4.688-9.622 7.895-3.207 3.824-.74 8.882-1.234 13.199-1.974 3.084-6.044 1.357-9.005 2.344-5.428 1.48-10.979 3.207-16.037 5.675-4.565 2.221-6.908 6.784-9.375 10.855.74 3.084 4.194 7.155.863 9.745-2.714 2.714-6.662 3.824-9.252 6.662-3.207 3.947-4.071 9.252-5.058 14.186.616 3.084 2.344 5.921 3.824 8.759-4.194 4.071-9.128 8.389-9.992 14.556.863 4.565 2.344 9.128 4.811 13.199 3.331 5.058 9.745 6.291 14.927 8.635.247 7.771-3.207 15.79.123 23.192 3.577 5.551 10.486 7.649 16.654 7.649 1.727 6.415 2.097 13.939 6.908 18.997 3.331 2.468 7.649 2.837 11.349 4.318-.74 4.811-4.565 8.759-4.318 13.693 2.468 5.428 7.402 11.966 14.186 10.732.987 0 3.207-.123 4.318-.247.123 6.044-.247 12.089 0 18.134 0 2.714 2.344 4.441 4.318 5.921 4.318 3.084 9.868 1.727 14.803 2.221-1.48 4.565-4.194 8.512-5.551 13.076-1.11 5.181 1.48 10.115 3.331 14.68 1.727 4.441 6.538 6.044 10.115 8.512-6.291 5.921-16.654 11.719-14.68 21.958 2.344 5.305 7.402 8.759 11.472 12.583-8.018 4.688-19.367 6.908-22.698 16.777-1.974 6.784 6.168 10.732 5.305 17.393-6.908 2.344-15.049 3.947-19.244 10.609-3.577 4.071-.123 11.472-5.921 13.939-4.441-.123-8.389-2.837-12.953-2.591-4.811.123-10.362-.987-14.433 2.221-4.565 2.591-3.947 8.389-4.934 12.83-8.635.123-14.803-8.635-23.685-7.278-7.402 1.48-11.966 7.895-16.037 13.693-5.921-4.318-10.486-10.486-17.146-13.693-4.071-.494-8.389-.616-12.459.123-4.318 2.591-7.771 6.662-12.459 8.759-5.305-4.194-7.155-11.349-12.706-15.42-6.044-4.071-13.57-.987-19.984-3.7-.616-6.784 5.181-12.336 3.454-19.12-.863-5.921-5.428-10.115-9.499-14.063-2.714-2.591-6.662-3.084-10.239-3.947.37-2.221-.123-5.181 2.221-6.415 5.798-4.441 12.83-7.895 16.777-14.309.863-8.635-7.031-14.927-8.142-23.314 1.85-1.11 3.947-1.603 6.168-1.48 5.921 0 11.842.123 17.764-.123 1.234-1.727 2.468-3.454 3.577-5.305.74-5.921.247-11.966.494-18.011 8.265-.74 13.939 8.265 22.328 6.291 5.675-1.727 10.115-7.525 16.654-6.044.123 4.688-.123 9.375.494 14.063.74 3.824 3.947 6.168 6.784 8.389a159 159 0 0 1 11.596 8.759c0 2.837.123 5.798-.247 8.635-2.591 5.305-7.402 8.759-11.966 12.212-4.688 3.577-8.882 7.771-13.323 11.596-2.097-3.454-1.85-7.525-.863-11.349.987-4.071.247-9.499-4.194-11.102-2.714-1.603-5.798.247-8.389 1.357-6.168 3.084-8.265 10.609-8.142 17.023-.247 6.662 2.344 13.57 7.895 17.764 4.318 4.194 10.855 4.565 16.654 3.824 3.207-1.11 5.798-3.331 8.882-4.688 7.402-1.11 16.407 2.591 22.451-3.577 6.168-4.811 2.591-13.323 3.331-19.984 3.824-3.454 8.512-6.168 10.855-10.979.37-4.071 1.357-9.252-2.097-12.336-2.96-4.071-8.018-5.675-12.706-6.784.74-3.824 3.084-7.278 3.084-11.225.494-5.675-2.837-10.486-5.551-15.049-3.454-5.428-10.732-5.428-16.407-5.305-.494-6.291.37-14.433-6.415-17.64-6.291-1.85-13.076-.863-19.367 0-1.974.494-3.947-.247-5.798-.74-.74-5.428 3.577-11.719-.863-16.283-3.331-4.565-8.882-6.538-14.309-7.155-4.071.123-7.771 1.974-11.719 2.714-.123-4.071.37-8.018.987-12.089-1.727-5.181-5.428-9.622-10.115-12.583q-9.252-1.11-18.504-1.85c2.714-5.181 6.168-11.225 3.084-17.146-4.071-8.882-13.939-12.212-22.945-13.939 2.837-5.181 7.278-10.979 4.688-17.146-2.221-9.128-11.472-12.83-18.257-18.011 2.837-4.318 7.402-7.155 10.362-11.349 2.591-4.688 2.837-10.115 3.577-15.296.616-7.278-4.811-13.076-6.291-19.984 9.745-1.11 20.848-3.947 25.658-13.57 3.084-7.771-2.96-14.68-3.331-22.205 5.921-.74 11.719-2.221 17.146-4.811 1.85-.863 2.837-2.714 3.824-4.441 3.454-5.675 5.675-12.089 6.662-18.751 3.947.37 7.649 1.85 11.472 2.837 7.525-1.727 14.309-6.784 17.64-13.693 1.357-3.947 1.974-8.018 2.96-11.966 6.291-.37 12.583.247 18.874-.494 5.798-1.48 9.622-7.031 11.225-12.459.987-2.344 1.234-5.305 3.7-6.538 3.454-.494 7.031-.123 10.486-.37 8.512-1.48 16.037-6.662 19.984-14.309-2.714-3.454-7.155-4.194-10.609-6.291-2.344-1.357-4.441-2.96-6.784-4.071-4.071-.74-5.058 4.441-7.031 7.031-6.662 13.446-21.464 20.354-35.651 22.451-6.415.494-12.83-1.357-18.38-4.441-2.714-1.357-5.305-3.577-8.512-2.96-5.921.987-11.472 3.947-17.64 3.7-7.525-.123-16.283.123-22.328-5.428-5.181-4.318-7.771-10.732-10.115-16.9-2.591-5.798-1.357-12.336-1.48-18.38 10.979-.247 21.711 4.565 32.69 1.974 8.018-.37 15.543-2.591 22.821-5.798 1.357-12.953-5.305-24.672-10.362-36.144-.616-1.357-.863-2.96-1.234-4.441 4.071-1.48 8.512-1.48 12.336.74 4.318 2.591 9.622 2.468 14.186.863 5.675-1.974 11.596-3.577 16.654-7.031Z"/>
  <path fill="#fff" stroke="#fff" stroke-width=".116" d="M287.055 74.262c10.732-3.7 22.205 6.291 22.821 17.023-.987 5.058-.987 10.979-5.428 14.433-4.811 3.7-11.472 5.798-17.27 3.577-6.291-1.48-10.979-6.538-13.446-12.212-.494-3.331-.74-6.784.123-10.115 2.837-5.428 7.402-10.239 13.199-12.706Z"/>
  <path fill="#ed7d07" stroke="#ed7d07" stroke-width=".116" d="M290.016 89.311c1.727 0 3.577 0 5.305.123.74 1.974 2.221 4.565.247 6.291-1.85 1.974-4.441.494-6.662 0a58 58 0 0 1 1.11-6.415Z"/>
  <path fill="#fff" stroke="#fff" stroke-width=".116" d="M374.147 111.146c1.603.494 3.7.37 4.565 2.097 2.96 4.194 5.551 8.759 6.662 13.817.494 9.005 0 18.134.123 27.139.247 6.662-3.084 12.583-5.798 18.38-4.318 9.005-10.979 17.393-20.354 21.464-3.7 1.85-7.895 2.468-11.472 4.688-2.591 5.551-3.947 11.842-7.525 17.023-2.96 5.058-9.992 3.824-15.049 4.688-1.85 5.921-2.468 12.83-8.018 16.654-3.577 3.947-9.622 4.441-12.953 8.389-.863 6.168.616 12.459-.74 18.504-3.207 4.071-7.771 7.155-9.992 12.089 3.824 3.331 9.622 6.662 9.375 12.459.494 6.538-7.402 10.486-6.415 17.27-.37 6.415 8.512 8.265 8.882 14.556.74 4.441-2.714 7.895-4.194 11.842 4.071 3.454 10.979 6.168 10.486 12.459.37 4.934-3.331 8.635-4.441 13.199 4.318 2.837 9.499 4.071 13.817 6.908 4.071 4.071 1.85 10.486 3.084 15.543 2.96 3.947 6.908 7.031 9.992 10.855 3.947 4.688 6.662 10.486 11.225 14.68 2.097 2.097 4.934 3.331 7.155 5.305 1.85 2.714 1.974 6.538 4.565 8.882 2.837 2.837 5.921 5.921 7.402 9.868.247 2.591-.863 5.058-1.357 7.649 3.084 2.591 6.291 5.181 8.635 8.635 1.727 3.084 1.357 6.784 2.221 10.239.74 4.194 3.207 7.895 2.96 12.336.74 6.538-8.142 9.375-7.649 16.037-.494 6.044 3.947 11.719 2.344 17.764-1.234 3.084-3.084 5.798-4.688 8.635-2.344 4.194-1.727 9.252-4.194 13.323-2.837 4.811-7.278 8.512-12.336 10.855.123-5.551 5.305-8.635 7.525-13.199.987-3.947 1.11-8.018 2.097-12.089 1.603-4.194 4.811-7.649 6.415-11.842.987-6.291-.123-12.83.616-19.367.74-3.577 2.221-7.155 1.234-10.732-.987-4.318-1.48-8.759-1.603-13.076-.123-3.947-2.714-7.031-4.934-10.115-3.331-4.194-1.974-10.239-5.181-14.433-2.468-4.194-8.018-5.921-8.759-11.102-1.11-6.415-5.921-11.102-10.486-15.42-5.305-5.305-10.486-10.855-16.53-15.42-4.441-2.837-4.688-8.635-7.031-12.953-2.221-6.044-8.142-9.622-10.609-15.543-.987-6.044.616-13.199-3.454-18.38-2.097-2.96-6.784-5.181-5.428-9.499 1.48-4.441 3.084-9.005 2.468-13.817.616-5.921-7.895-7.771-7.402-13.57 1.85-5.675 5.798-10.979 4.934-17.27.494-5.305-3.331-9.499-5.058-14.186-.987-4.441 3.207-7.402 5.058-10.979 4.811-6.168.37-14.433 3.947-20.971 4.811-4.318 11.719-5.921 16.283-10.732 5.428-5.058 7.402-12.953 13.693-17.146 5.305-3.7 9.868-8.389 13.199-13.817 1.603-2.097 2.714-5.058 5.428-5.675 8.265-2.221 15.173-7.649 21.711-12.953 4.441-5.675 9.622-11.842 9.745-19.491.37-4.318 2.468-8.142 3.331-12.212.987-7.278-2.468-14.063-3.331-21.095-.494-5.921-4.688-10.979-4.194-17.146Z"/>
  <path fill="#fff" stroke="#fff" stroke-width=".116" d="M352.189 120.151c1.603 0 3.084.123 4.688.123 1.85 7.525 3.577 15.173 2.221 22.821-1.11 4.441-.37 9.005-1.234 13.323-2.221 5.551-5.551 11.842-11.719 13.57-3.824 1.48-8.018.247-11.842 1.357-2.221 1.85-3.947 4.318-6.168 6.291-2.344 1.85-5.181 2.837-7.525 4.565-1.603 2.96-1.974 6.784-5.058 8.635-4.318 2.714-9.128 4.071-13.446 6.538-2.837 3.207-1.11 8.635-4.441 11.596-4.688 4.071-11.349 4.811-16.9 7.771-2.96 4.194-2.96 9.622-5.675 14.063-3.7 5.181-11.349 4.318-15.543 9.005.123 4.934 3.084 10.115.247 14.803-1.357 5.675-8.759 8.142-7.649 14.556 5.551 2.344 11.349 6.662 11.349 13.323.987 6.291-6.415 10.362-4.934 16.53 3.7 5.058 9.128 9.252 10.855 15.543.987 5.428-3.824 9.622-3.824 14.803-.616 5.798 5.798 8.512 7.525 13.446.616 5.921-.494 11.966.37 17.887 2.96 3.947 7.525 6.291 10.609 10.115.123 4.565.74 9.128 2.837 13.199-.863 3.454-5.181.494-7.649.247-1.603-5.181-1.603-11.225-5.058-15.79-2.097-2.837-4.934-5.058-6.908-7.895-.863-5.305.494-10.979-1.357-16.16-1.48-5.058-5.181-9.128-7.402-13.939-.616-4.441 3.454-7.895 3.577-12.336.123-2.468.247-5.058-.37-7.525-2.591-3.577-6.538-5.798-9.252-9.375-1.48-3.947 1.974-7.525 2.221-11.472 1.234-8.142-3.454-15.667-8.759-21.464-1.234-1.11-1.727-3.084-.863-4.565 3.207-5.798 7.525-11.225 9.375-17.764.616-4.318.247-8.635.247-12.953 4.194-1.48 8.635-2.714 11.842-5.921 4.318-3.7 6.538-9.005 10.362-13.076 3.824-2.468 8.759-3.207 12.336-6.168 3.454-2.837 5.305-7.155 7.525-10.979 1.603-3.454 5.551-4.318 8.512-6.291 3.824-1.85 5.921-5.551 8.635-8.635 2.591-2.837 6.168-4.441 8.635-7.278 2.221-2.714 4.194-5.921 7.649-7.155 4.688-.74 9.499-.494 14.063-2.097 7.525-9.745 9.375-22.821 7.155-34.663-.863-3.577-.247-7.155.74-10.609Z"/>
  <path fill="#ed7d07" stroke="#ed7d07" stroke-width=".116" d="M402.272 250.417a43 43 0 0 1 6.415-3.947c1.357 10.979-5.305 20.724-10.855 29.606 3.7 4.441 8.882 7.402 13.693 10.609v3.947c-3.454 2.96-6.908 5.675-10.362 8.512.123 1.603.247 3.207.494 4.688 3.207 3.577 7.278 6.044 10.979 8.882v3.7c-4.071 3.084-8.265 6.168-11.596 10.362 1.727 3.7 3.454 7.402 4.071 11.349.74 4.934 2.837 9.622 2.468 14.68-5.798-2.221-10.115-7.031-15.667-9.745-6.538-3.331-13.817-4.318-20.848-6.168-7.649-1.85-15.42.123-23.068.74-1.234-5.181-1.11-10.732-.494-16.037 2.344-2.221 6.044-1.11 9.005-1.85 6.168-1.11 12.459-.494 18.627-1.11 2.714-.247 4.565-2.221 6.291-4.194-6.168-3.084-13.323-.987-19.984-2.221-4.934-.863-9.868-.74-14.803-.74-4.071 0-7.771-1.85-11.596-2.96 0-1.357 0-2.714.123-3.947 5.305-1.85 10.486-4.565 16.283-4.194 9.992.74 19.244-3.454 28.742-5.551-6.044-2.221-12.706-1.357-18.751-3.947-5.675-2.591-12.336-.37-17.887-3.454 2.714-2.221 6.168-1.727 9.375-2.591 5.798-.74 11.102-4.441 17.146-4.071 3.454-.247 8.142.863 10.239-2.837q1.665-1.85-.37-3.331c-5.675-.987-11.102 1.234-16.654 1.11-9.622.123-18.874-2.96-28.495-2.468 0-2.468.123-4.934.123-7.278 5.058-1.603 10.239-2.714 15.42-3.454 9.128-1.11 18.627.863 27.632-1.85 8.389-2.468 17.27-4.688 24.302-10.239Z"/>
  <path fill="#fff" stroke="#fff" stroke-width=".116" d="M288.166 385.619c3.947-.123 8.142-.74 11.596 1.727 4.441 2.591 4.441 8.389 5.675 12.953q4.626 1.11 9.252 1.48c1.603 3.577 2.837 7.155 4.441 10.732 1.234 3.7 5.551 4.318 7.895 6.908 2.221 3.331 3.084 7.525 5.058 11.102 2.714 3.947 7.155 6.662 9.992 10.609.37 2.591.247 5.305.37 7.895.494 6.168 7.895 9.622 7.402 15.913.247 4.688-.247 9.252-1.234 13.693-1.357 6.415 4.318 11.719 3.7 18.011-1.234 4.688-5.921 7.278-8.759 10.979-2.097 3.824-.247 8.635-2.468 12.336-5.181 11.966-19.367 16.53-31.333 16.16.247-.494.616-1.603.863-2.097 8.512-1.603 16.283-6.168 22.205-12.459 2.344-2.344 2.714-5.798 3.7-8.882 1.85-6.784 7.525-11.596 10.609-17.887 1.11-4.318-2.591-7.771-3.454-11.719-.74-5.551 0-11.225.987-16.777.987-4.565-3.084-7.771-5.305-11.102-2.344-2.96-2.468-6.784-3.7-10.115-1.48-2.468-4.441-3.7-6.168-6.044-1.603-3.084-1.974-6.784-3.824-9.868-2.344-3.577-6.538-4.934-9.868-7.402-2.221-1.357-2.591-4.071-3.7-6.168-2.344-5.921-8.142-9.128-11.842-13.939-2.221-2.591-3.207-5.921-4.934-8.759-1.974-2.837-4.688-4.934-7.155-7.278Z"/>
</svg>
